<mxfile host="Electron" modified="2024-12-10T07:01:41.851Z" agent="Mozilla/5.0 (Windows NT 10.0; Win64; x64) AppleWebKit/537.36 (KHTML, like Gecko) draw.io/22.0.0 Chrome/114.0.5735.289 Electron/25.8.3 Safari/537.36" etag="21A-G24EiOpTXnqNhSX7" version="22.0.0" type="device">
  <diagram name="Pagina-1" id="dnuwzMZg-UUX4TP160sp">
    <mxGraphModel dx="7233" dy="4608" grid="1" gridSize="10" guides="1" tooltips="1" connect="1" arrows="1" fold="1" page="1" pageScale="1" pageWidth="4681" pageHeight="3300" math="0" shadow="0">
      <root>
        <mxCell id="0" />
        <mxCell id="1" parent="0" />
        <mxCell id="5vDNGPQUwyRePxuzF-Cj-1" value="Cliente" style="swimlane;fontStyle=0;childLayout=stackLayout;horizontal=1;startSize=26;fillColor=none;horizontalStack=0;resizeParent=1;resizeParentMax=0;resizeLast=0;collapsible=1;marginBottom=0;whiteSpace=wrap;html=1;" parent="1" vertex="1">
          <mxGeometry x="-270" y="168" width="210" height="340" as="geometry" />
        </mxCell>
        <mxCell id="5vDNGPQUwyRePxuzF-Cj-2" value="+ nome: varchar(200)" style="text;strokeColor=none;fillColor=none;align=left;verticalAlign=top;spacingLeft=4;spacingRight=4;overflow=hidden;rotatable=0;points=[[0,0.5],[1,0.5]];portConstraint=eastwest;whiteSpace=wrap;html=1;" parent="5vDNGPQUwyRePxuzF-Cj-1" vertex="1">
          <mxGeometry y="26" width="210" height="26" as="geometry" />
        </mxCell>
        <mxCell id="5vDNGPQUwyRePxuzF-Cj-3" value="+ cognome: varchar(200)" style="text;strokeColor=none;fillColor=none;align=left;verticalAlign=top;spacingLeft=4;spacingRight=4;overflow=hidden;rotatable=0;points=[[0,0.5],[1,0.5]];portConstraint=eastwest;whiteSpace=wrap;html=1;" parent="5vDNGPQUwyRePxuzF-Cj-1" vertex="1">
          <mxGeometry y="52" width="210" height="26" as="geometry" />
        </mxCell>
        <mxCell id="5vDNGPQUwyRePxuzF-Cj-4" value="+ CF: varchar(16)&lt;br&gt;&lt;br&gt;+telefono:int&lt;br&gt;&lt;br&gt;+via:varchar(256)&lt;br&gt;&lt;br&gt;+numeroCivico:varchar(256)&lt;br&gt;&lt;br&gt;+username:varchar(200)&lt;br&gt;&lt;br&gt;+password:varchar(200)&lt;br&gt;&lt;br&gt;+email:varchar(200)&lt;br&gt;&lt;br&gt;+dataRegistrazione:date&lt;br&gt;&lt;br&gt;+oraRegistrazione:time" style="text;strokeColor=none;fillColor=none;align=left;verticalAlign=top;spacingLeft=4;spacingRight=4;overflow=hidden;rotatable=0;points=[[0,0.5],[1,0.5]];portConstraint=eastwest;whiteSpace=wrap;html=1;" parent="5vDNGPQUwyRePxuzF-Cj-1" vertex="1">
          <mxGeometry y="78" width="210" height="262" as="geometry" />
        </mxCell>
        <mxCell id="5vDNGPQUwyRePxuzF-Cj-5" value="Agente" style="swimlane;fontStyle=0;childLayout=stackLayout;horizontal=1;startSize=26;fillColor=none;horizontalStack=0;resizeParent=1;resizeParentMax=0;resizeLast=0;collapsible=1;marginBottom=0;whiteSpace=wrap;html=1;" parent="1" vertex="1">
          <mxGeometry x="530" y="130" width="180" height="320" as="geometry" />
        </mxCell>
        <mxCell id="5vDNGPQUwyRePxuzF-Cj-7" value="+ nome: varchar(200)" style="text;strokeColor=none;fillColor=none;align=left;verticalAlign=top;spacingLeft=4;spacingRight=4;overflow=hidden;rotatable=0;points=[[0,0.5],[1,0.5]];portConstraint=eastwest;whiteSpace=wrap;html=1;" parent="5vDNGPQUwyRePxuzF-Cj-5" vertex="1">
          <mxGeometry y="26" width="180" height="26" as="geometry" />
        </mxCell>
        <mxCell id="5vDNGPQUwyRePxuzF-Cj-8" value="+ cognome: varchar(200)&lt;br&gt;&lt;br&gt;+ CF: varchar(16)&lt;br style=&quot;border-color: var(--border-color);&quot;&gt;&lt;br style=&quot;border-color: var(--border-color);&quot;&gt;+telefono:int&lt;br style=&quot;border-color: var(--border-color);&quot;&gt;&lt;br style=&quot;border-color: var(--border-color);&quot;&gt;+via:varchar(256)&lt;br style=&quot;border-color: var(--border-color);&quot;&gt;&lt;br style=&quot;border-color: var(--border-color);&quot;&gt;+numeroCivico:varchar(256)&lt;br style=&quot;border-color: var(--border-color);&quot;&gt;&lt;br style=&quot;border-color: var(--border-color);&quot;&gt;+username:varchar(200)&lt;br style=&quot;border-color: var(--border-color);&quot;&gt;&lt;br style=&quot;border-color: var(--border-color);&quot;&gt;+password:varchar(200)&lt;br style=&quot;border-color: var(--border-color);&quot;&gt;&lt;br style=&quot;border-color: var(--border-color);&quot;&gt;+email:varchar(200)&lt;br style=&quot;border-color: var(--border-color);&quot;&gt;&lt;br style=&quot;border-color: var(--border-color);&quot;&gt;+partitaIva:varchar(16)" style="text;strokeColor=none;fillColor=none;align=left;verticalAlign=top;spacingLeft=4;spacingRight=4;overflow=hidden;rotatable=0;points=[[0,0.5],[1,0.5]];portConstraint=eastwest;whiteSpace=wrap;html=1;" parent="5vDNGPQUwyRePxuzF-Cj-5" vertex="1">
          <mxGeometry y="52" width="180" height="268" as="geometry" />
        </mxCell>
        <mxCell id="5vDNGPQUwyRePxuzF-Cj-13" value="Gestore Agenzia Immobiliare" style="swimlane;fontStyle=0;childLayout=stackLayout;horizontal=1;startSize=26;fillColor=none;horizontalStack=0;resizeParent=1;resizeParentMax=0;resizeLast=0;collapsible=1;marginBottom=0;whiteSpace=wrap;html=1;" parent="1" vertex="1">
          <mxGeometry x="840" y="130" width="210" height="340" as="geometry" />
        </mxCell>
        <mxCell id="5vDNGPQUwyRePxuzF-Cj-14" value="+ nome: varchar(200)" style="text;strokeColor=none;fillColor=none;align=left;verticalAlign=top;spacingLeft=4;spacingRight=4;overflow=hidden;rotatable=0;points=[[0,0.5],[1,0.5]];portConstraint=eastwest;whiteSpace=wrap;html=1;" parent="5vDNGPQUwyRePxuzF-Cj-13" vertex="1">
          <mxGeometry y="26" width="210" height="26" as="geometry" />
        </mxCell>
        <mxCell id="5vDNGPQUwyRePxuzF-Cj-15" value="+ cognome: varchar(200)&lt;br&gt;&lt;br&gt;+ CF: varchar(16)&lt;br style=&quot;border-color: var(--border-color);&quot;&gt;&lt;br style=&quot;border-color: var(--border-color);&quot;&gt;+telefono:int&lt;br style=&quot;border-color: var(--border-color);&quot;&gt;&lt;br style=&quot;border-color: var(--border-color);&quot;&gt;+via:varchar(256)&lt;br style=&quot;border-color: var(--border-color);&quot;&gt;&lt;br style=&quot;border-color: var(--border-color);&quot;&gt;+numeroCivico:varchar(256)&lt;br style=&quot;border-color: var(--border-color);&quot;&gt;&lt;br style=&quot;border-color: var(--border-color);&quot;&gt;+username:varchar(200)&lt;br style=&quot;border-color: var(--border-color);&quot;&gt;&lt;br style=&quot;border-color: var(--border-color);&quot;&gt;+password:varchar(200)&lt;br style=&quot;border-color: var(--border-color);&quot;&gt;&lt;br style=&quot;border-color: var(--border-color);&quot;&gt;+email:varchar(200)&lt;br style=&quot;border-color: var(--border-color);&quot;&gt;&lt;br style=&quot;border-color: var(--border-color);&quot;&gt;+partitaIva:varchar(16)&lt;br&gt;&lt;br&gt;+admin:bool" style="text;strokeColor=none;fillColor=none;align=left;verticalAlign=top;spacingLeft=4;spacingRight=4;overflow=hidden;rotatable=0;points=[[0,0.5],[1,0.5]];portConstraint=eastwest;whiteSpace=wrap;html=1;" parent="5vDNGPQUwyRePxuzF-Cj-13" vertex="1">
          <mxGeometry y="52" width="210" height="288" as="geometry" />
        </mxCell>
        <mxCell id="5vDNGPQUwyRePxuzF-Cj-140" value="" style="endArrow=none;html=1;rounded=0;exitX=0.5;exitY=0;exitDx=0;exitDy=0;entryX=0.999;entryY=0.151;entryDx=0;entryDy=0;entryPerimeter=0;edgeStyle=orthogonalEdgeStyle;curved=1;" parent="5vDNGPQUwyRePxuzF-Cj-13" source="5vDNGPQUwyRePxuzF-Cj-13" target="5vDNGPQUwyRePxuzF-Cj-15" edge="1">
          <mxGeometry width="50" height="50" relative="1" as="geometry">
            <mxPoint x="100" y="-10" as="sourcePoint" />
            <mxPoint x="150" y="-70" as="targetPoint" />
            <Array as="points">
              <mxPoint x="105" y="-30" />
              <mxPoint x="230" y="-30" />
              <mxPoint x="230" y="95" />
            </Array>
          </mxGeometry>
        </mxCell>
        <mxCell id="5vDNGPQUwyRePxuzF-Cj-16" value="Agenzia" style="swimlane;fontStyle=0;childLayout=stackLayout;horizontal=1;startSize=26;fillColor=none;horizontalStack=0;resizeParent=1;resizeParentMax=0;resizeLast=0;collapsible=1;marginBottom=0;whiteSpace=wrap;html=1;" parent="1" vertex="1">
          <mxGeometry x="880" y="638" width="160" height="78" as="geometry" />
        </mxCell>
        <mxCell id="5vDNGPQUwyRePxuzF-Cj-17" value="+ NomeAgenzia: String" style="text;strokeColor=none;fillColor=none;align=left;verticalAlign=top;spacingLeft=4;spacingRight=4;overflow=hidden;rotatable=0;points=[[0,0.5],[1,0.5]];portConstraint=eastwest;whiteSpace=wrap;html=1;" parent="5vDNGPQUwyRePxuzF-Cj-16" vertex="1">
          <mxGeometry y="26" width="160" height="26" as="geometry" />
        </mxCell>
        <mxCell id="5vDNGPQUwyRePxuzF-Cj-18" value="+ LocalitÃ : String" style="text;strokeColor=none;fillColor=none;align=left;verticalAlign=top;spacingLeft=4;spacingRight=4;overflow=hidden;rotatable=0;points=[[0,0.5],[1,0.5]];portConstraint=eastwest;whiteSpace=wrap;html=1;" parent="5vDNGPQUwyRePxuzF-Cj-16" vertex="1">
          <mxGeometry y="52" width="160" height="26" as="geometry" />
        </mxCell>
        <mxCell id="5vDNGPQUwyRePxuzF-Cj-19" value="Ricerca" style="swimlane;fontStyle=0;childLayout=stackLayout;horizontal=1;startSize=26;fillColor=none;horizontalStack=0;resizeParent=1;resizeParentMax=0;resizeLast=0;collapsible=1;marginBottom=0;whiteSpace=wrap;html=1;" parent="1" vertex="1">
          <mxGeometry x="-117" y="720" width="197" height="282" as="geometry" />
        </mxCell>
        <mxCell id="5vDNGPQUwyRePxuzF-Cj-20" value="+TitoloRicerca:String" style="text;strokeColor=none;fillColor=none;align=left;verticalAlign=top;spacingLeft=4;spacingRight=4;overflow=hidden;rotatable=0;points=[[0,0.5],[1,0.5]];portConstraint=eastwest;whiteSpace=wrap;html=1;" parent="5vDNGPQUwyRePxuzF-Cj-19" vertex="1">
          <mxGeometry y="26" width="197" height="26" as="geometry" />
        </mxCell>
        <mxCell id="5vDNGPQUwyRePxuzF-Cj-21" value="+DataRicerca:Date&lt;br&gt;&lt;br&gt;+OraRicerca:Date&lt;br&gt;&lt;br&gt;+PrezzoMin:Int&lt;br&gt;&lt;br&gt;+PrezzoMax:Int&lt;br&gt;&lt;br&gt;+NumeroStanze:Int&lt;br&gt;&lt;br&gt;+ClasseEnergetica:String&lt;br&gt;&lt;br&gt;+LocalitaRicercata:String&lt;br&gt;&lt;br&gt;+ViaRicercata:String&lt;br&gt;" style="text;strokeColor=none;fillColor=none;align=left;verticalAlign=top;spacingLeft=4;spacingRight=4;overflow=hidden;rotatable=0;points=[[0,0.5],[1,0.5]];portConstraint=eastwest;whiteSpace=wrap;html=1;" parent="5vDNGPQUwyRePxuzF-Cj-19" vertex="1">
          <mxGeometry y="52" width="197" height="230" as="geometry" />
        </mxCell>
        <mxCell id="5vDNGPQUwyRePxuzF-Cj-22" value="Notifica" style="swimlane;fontStyle=0;childLayout=stackLayout;horizontal=1;startSize=26;fillColor=none;horizontalStack=0;resizeParent=1;resizeParentMax=0;resizeLast=0;collapsible=1;marginBottom=0;whiteSpace=wrap;html=1;" parent="1" vertex="1">
          <mxGeometry x="420" y="786" width="280" height="150" as="geometry" />
        </mxCell>
        <mxCell id="5vDNGPQUwyRePxuzF-Cj-23" value="+Titolo:String&lt;br&gt;&lt;br&gt;+Contenuto:String&lt;br&gt;&lt;br&gt;+categoria:Categoria&lt;br&gt;&lt;br&gt;+Accettata:Bool" style="text;strokeColor=none;fillColor=none;align=left;verticalAlign=top;spacingLeft=4;spacingRight=4;overflow=hidden;rotatable=0;points=[[0,0.5],[1,0.5]];portConstraint=eastwest;whiteSpace=wrap;html=1;" parent="5vDNGPQUwyRePxuzF-Cj-22" vertex="1">
          <mxGeometry y="26" width="280" height="124" as="geometry" />
        </mxCell>
        <mxCell id="5vDNGPQUwyRePxuzF-Cj-24" value="Immobile" style="swimlane;fontStyle=0;align=center;verticalAlign=top;childLayout=stackLayout;horizontal=1;startSize=26;horizontalStack=0;resizeParent=1;resizeLast=0;collapsible=1;marginBottom=0;rounded=0;shadow=0;strokeWidth=1;" parent="1" vertex="1">
          <mxGeometry x="630" y="-490" width="280" height="528" as="geometry">
            <mxRectangle x="550" y="140" width="160" height="26" as="alternateBounds" />
          </mxGeometry>
        </mxCell>
        <mxCell id="5vDNGPQUwyRePxuzF-Cj-25" value="+tipoImmobile:TipoImmobile" style="text;align=left;verticalAlign=top;spacingLeft=4;spacingRight=4;overflow=hidden;rotatable=0;points=[[0,0.5],[1,0.5]];portConstraint=eastwest;rounded=0;shadow=0;html=0;" parent="5vDNGPQUwyRePxuzF-Cj-24" vertex="1">
          <mxGeometry y="26" width="280" height="26" as="geometry" />
        </mxCell>
        <mxCell id="5vDNGPQUwyRePxuzF-Cj-105" value="" style="endArrow=none;html=1;rounded=0;exitX=1;exitY=0;exitDx=0;exitDy=0;" parent="5vDNGPQUwyRePxuzF-Cj-24" source="5vDNGPQUwyRePxuzF-Cj-5" edge="1">
          <mxGeometry width="50" height="50" relative="1" as="geometry">
            <mxPoint x="250" y="490" as="sourcePoint" />
            <mxPoint x="180" y="530" as="targetPoint" />
          </mxGeometry>
        </mxCell>
        <mxCell id="5vDNGPQUwyRePxuzF-Cj-28" value="+tipoVendita:Vendita&#xa;&#xa;+foto:Uri&#xa;&#xa;+descrizione:String&#xa;&#xa;+indirizzo:varchar(200)&#xa;&#xa;+comune:varchar(200)&#xa;&#xa;+numeroCivico:int&#xa;&#xa;+numeroStanze:Int&#xa;&#xa;+piano:Int&#xa;&#xa;+classeEnergetica:String&#xa;&#xa;+superficie:int&#xa;&#xa;+arredamento:Arredamento&#xa;&#xa;+prezzo:int&#xa;&#xa;+speseCondominiali:int&#xa;&#xa;+nÂ°bagni:int&#xa;&#xa;+nÂ°soggiorni:int&#xa;&#xa;+nÂ°cucine:int&#xa;&#xa;&#xa;" style="text;align=left;verticalAlign=top;spacingLeft=4;spacingRight=4;overflow=hidden;rotatable=0;points=[[0,0.5],[1,0.5]];portConstraint=eastwest;rounded=0;shadow=0;html=0;" parent="5vDNGPQUwyRePxuzF-Cj-24" vertex="1">
          <mxGeometry y="52" width="280" height="458" as="geometry" />
        </mxCell>
        <mxCell id="5vDNGPQUwyRePxuzF-Cj-29" value="" style="line;html=1;strokeWidth=1;align=left;verticalAlign=middle;spacingTop=-1;spacingLeft=3;spacingRight=3;rotatable=0;labelPosition=right;points=[];portConstraint=eastwest;" parent="5vDNGPQUwyRePxuzF-Cj-24" vertex="1">
          <mxGeometry y="510" width="280" height="8" as="geometry" />
        </mxCell>
        <mxCell id="5vDNGPQUwyRePxuzF-Cj-30" value="&amp;lt;&amp;lt;enumeration&amp;gt;&amp;gt;&lt;br&gt;Vendita" style="swimlane;fontStyle=1;align=center;verticalAlign=top;childLayout=stackLayout;horizontal=1;startSize=40;horizontalStack=0;resizeParent=1;resizeParentMax=0;resizeLast=0;collapsible=1;marginBottom=0;whiteSpace=wrap;html=1;" parent="1" vertex="1">
          <mxGeometry x="1000" y="-140" width="190" height="88" as="geometry" />
        </mxCell>
        <mxCell id="5vDNGPQUwyRePxuzF-Cj-31" value="VENDITA,&lt;br&gt;AFFITTO" style="text;strokeColor=none;fillColor=none;align=left;verticalAlign=top;spacingLeft=4;spacingRight=4;overflow=hidden;rotatable=0;points=[[0,0.5],[1,0.5]];portConstraint=eastwest;whiteSpace=wrap;html=1;" parent="5vDNGPQUwyRePxuzF-Cj-30" vertex="1">
          <mxGeometry y="40" width="190" height="40" as="geometry" />
        </mxCell>
        <mxCell id="5vDNGPQUwyRePxuzF-Cj-32" value="" style="line;strokeWidth=1;fillColor=none;align=left;verticalAlign=middle;spacingTop=-1;spacingLeft=3;spacingRight=3;rotatable=0;labelPosition=right;points=[];portConstraint=eastwest;strokeColor=inherit;" parent="5vDNGPQUwyRePxuzF-Cj-30" vertex="1">
          <mxGeometry y="80" width="190" height="8" as="geometry" />
        </mxCell>
        <mxCell id="5vDNGPQUwyRePxuzF-Cj-33" value="&amp;lt;&amp;lt;enumeration&amp;gt;&amp;gt;&lt;br&gt;TipoImmobile" style="swimlane;fontStyle=1;align=center;verticalAlign=top;childLayout=stackLayout;horizontal=1;startSize=40;horizontalStack=0;resizeParent=1;resizeParentMax=0;resizeLast=0;collapsible=1;marginBottom=0;whiteSpace=wrap;html=1;" parent="1" vertex="1">
          <mxGeometry x="1000" y="-630" width="190" height="178" as="geometry" />
        </mxCell>
        <mxCell id="5vDNGPQUwyRePxuzF-Cj-34" value="RESIDENZIALE.&lt;br&gt;APPARTAMENTO,&lt;br&gt;ATTICO,&lt;br&gt;OPEN SPACE,&lt;br&gt;LOFT,&lt;br&gt;MANSARDA,&lt;br&gt;VILLA,&lt;br&gt;BAITA" style="text;strokeColor=none;fillColor=none;align=left;verticalAlign=top;spacingLeft=4;spacingRight=4;overflow=hidden;rotatable=0;points=[[0,0.5],[1,0.5]];portConstraint=eastwest;whiteSpace=wrap;html=1;" parent="5vDNGPQUwyRePxuzF-Cj-33" vertex="1">
          <mxGeometry y="40" width="190" height="130" as="geometry" />
        </mxCell>
        <mxCell id="5vDNGPQUwyRePxuzF-Cj-35" value="" style="line;strokeWidth=1;fillColor=none;align=left;verticalAlign=middle;spacingTop=-1;spacingLeft=3;spacingRight=3;rotatable=0;labelPosition=right;points=[];portConstraint=eastwest;strokeColor=inherit;" parent="5vDNGPQUwyRePxuzF-Cj-33" vertex="1">
          <mxGeometry y="170" width="190" height="8" as="geometry" />
        </mxCell>
        <mxCell id="5vDNGPQUwyRePxuzF-Cj-36" value="&amp;lt;&amp;lt;enumeration&amp;gt;&amp;gt;&lt;br&gt;Arredamento" style="swimlane;fontStyle=1;align=center;verticalAlign=top;childLayout=stackLayout;horizontal=1;startSize=40;horizontalStack=0;resizeParent=1;resizeParentMax=0;resizeLast=0;collapsible=1;marginBottom=0;whiteSpace=wrap;html=1;" parent="1" vertex="1">
          <mxGeometry x="1000" y="-390" width="190" height="178" as="geometry" />
        </mxCell>
        <mxCell id="5vDNGPQUwyRePxuzF-Cj-37" value="NON ARREDATA,&lt;br&gt;PARZIALMENTE ARREDATA,&lt;br&gt;ARREDATA" style="text;strokeColor=none;fillColor=none;align=left;verticalAlign=top;spacingLeft=4;spacingRight=4;overflow=hidden;rotatable=0;points=[[0,0.5],[1,0.5]];portConstraint=eastwest;whiteSpace=wrap;html=1;" parent="5vDNGPQUwyRePxuzF-Cj-36" vertex="1">
          <mxGeometry y="40" width="190" height="130" as="geometry" />
        </mxCell>
        <mxCell id="5vDNGPQUwyRePxuzF-Cj-38" value="" style="line;strokeWidth=1;fillColor=none;align=left;verticalAlign=middle;spacingTop=-1;spacingLeft=3;spacingRight=3;rotatable=0;labelPosition=right;points=[];portConstraint=eastwest;strokeColor=inherit;" parent="5vDNGPQUwyRePxuzF-Cj-36" vertex="1">
          <mxGeometry y="170" width="190" height="8" as="geometry" />
        </mxCell>
        <mxCell id="5vDNGPQUwyRePxuzF-Cj-39" value="&amp;lt;&amp;lt;enumeration&amp;gt;&amp;gt;&lt;br&gt;CATEGORIA" style="swimlane;fontStyle=1;align=center;verticalAlign=top;childLayout=stackLayout;horizontal=1;startSize=40;horizontalStack=0;resizeParent=1;resizeParentMax=0;resizeLast=0;collapsible=1;marginBottom=0;whiteSpace=wrap;html=1;" parent="1" vertex="1">
          <mxGeometry x="465" y="1000" width="190" height="108" as="geometry" />
        </mxCell>
        <mxCell id="5vDNGPQUwyRePxuzF-Cj-40" value="VISITAIMMOBILE,&lt;br&gt;SPAM,&lt;br&gt;ESITORICHIESTA" style="text;strokeColor=none;fillColor=none;align=left;verticalAlign=top;spacingLeft=4;spacingRight=4;overflow=hidden;rotatable=0;points=[[0,0.5],[1,0.5]];portConstraint=eastwest;whiteSpace=wrap;html=1;" parent="5vDNGPQUwyRePxuzF-Cj-39" vertex="1">
          <mxGeometry y="40" width="190" height="60" as="geometry" />
        </mxCell>
        <mxCell id="5vDNGPQUwyRePxuzF-Cj-41" value="" style="line;strokeWidth=1;fillColor=none;align=left;verticalAlign=middle;spacingTop=-1;spacingLeft=3;spacingRight=3;rotatable=0;labelPosition=right;points=[];portConstraint=eastwest;strokeColor=inherit;" parent="5vDNGPQUwyRePxuzF-Cj-39" vertex="1">
          <mxGeometry y="100" width="190" height="8" as="geometry" />
        </mxCell>
        <mxCell id="5vDNGPQUwyRePxuzF-Cj-42" value="Recensione" style="swimlane;fontStyle=1;align=center;verticalAlign=top;childLayout=stackLayout;horizontal=1;startSize=26;horizontalStack=0;resizeParent=1;resizeParentMax=0;resizeLast=0;collapsible=1;marginBottom=0;whiteSpace=wrap;html=1;" parent="1" vertex="1">
          <mxGeometry x="156" y="89.5" width="208" height="91" as="geometry" />
        </mxCell>
        <mxCell id="5vDNGPQUwyRePxuzF-Cj-43" value="+ CommentoRecensione: String&lt;br&gt;&lt;br&gt;+Valutazione:Int" style="text;strokeColor=none;fillColor=none;align=left;verticalAlign=top;spacingLeft=4;spacingRight=4;overflow=hidden;rotatable=0;points=[[0,0.5],[1,0.5]];portConstraint=eastwest;whiteSpace=wrap;html=1;" parent="5vDNGPQUwyRePxuzF-Cj-42" vertex="1">
          <mxGeometry y="26" width="208" height="57" as="geometry" />
        </mxCell>
        <mxCell id="5vDNGPQUwyRePxuzF-Cj-44" value="" style="line;strokeWidth=1;fillColor=none;align=left;verticalAlign=middle;spacingTop=-1;spacingLeft=3;spacingRight=3;rotatable=0;labelPosition=right;points=[];portConstraint=eastwest;strokeColor=inherit;" parent="5vDNGPQUwyRePxuzF-Cj-42" vertex="1">
          <mxGeometry y="83" width="208" height="8" as="geometry" />
        </mxCell>
        <mxCell id="5vDNGPQUwyRePxuzF-Cj-47" value="" style="endArrow=none;html=1;rounded=0;entryX=0.006;entryY=0.348;entryDx=0;entryDy=0;entryPerimeter=0;exitX=0.993;exitY=0.39;exitDx=0;exitDy=0;exitPerimeter=0;" parent="1" source="5vDNGPQUwyRePxuzF-Cj-8" target="5vDNGPQUwyRePxuzF-Cj-15" edge="1">
          <mxGeometry width="50" height="50" relative="1" as="geometry">
            <mxPoint x="700" y="330" as="sourcePoint" />
            <mxPoint x="808.3200000000006" y="284.8159999999999" as="targetPoint" />
          </mxGeometry>
        </mxCell>
        <mxCell id="5vDNGPQUwyRePxuzF-Cj-48" value="" style="endArrow=none;html=1;rounded=0;exitX=0.5;exitY=0;exitDx=0;exitDy=0;" parent="1" source="5vDNGPQUwyRePxuzF-Cj-16" target="5vDNGPQUwyRePxuzF-Cj-15" edge="1">
          <mxGeometry width="50" height="50" relative="1" as="geometry">
            <mxPoint x="850" y="580" as="sourcePoint" />
            <mxPoint x="900" y="530" as="targetPoint" />
          </mxGeometry>
        </mxCell>
        <mxCell id="5vDNGPQUwyRePxuzF-Cj-50" value="&amp;lt;crea" style="text;html=1;align=center;verticalAlign=middle;resizable=0;points=[];autosize=1;strokeColor=none;fillColor=none;" parent="1" vertex="1">
          <mxGeometry x="745" y="251" width="50" height="30" as="geometry" />
        </mxCell>
        <mxCell id="5vDNGPQUwyRePxuzF-Cj-52" value="appartiene&amp;gt;" style="text;html=1;align=center;verticalAlign=middle;resizable=0;points=[];autosize=1;strokeColor=none;fillColor=none;" parent="1" vertex="1">
          <mxGeometry x="950" y="540" width="90" height="30" as="geometry" />
        </mxCell>
        <mxCell id="5vDNGPQUwyRePxuzF-Cj-53" value="Visita" style="swimlane;fontStyle=0;childLayout=stackLayout;horizontal=1;startSize=26;fillColor=none;horizontalStack=0;resizeParent=1;resizeParentMax=0;resizeLast=0;collapsible=1;marginBottom=0;whiteSpace=wrap;html=1;" parent="1" vertex="1">
          <mxGeometry x="150" y="251" width="220" height="135" as="geometry" />
        </mxCell>
        <mxCell id="5vDNGPQUwyRePxuzF-Cj-54" value="+ DataVisita: type" style="text;strokeColor=none;fillColor=none;align=left;verticalAlign=top;spacingLeft=4;spacingRight=4;overflow=hidden;rotatable=0;points=[[0,0.5],[1,0.5]];portConstraint=eastwest;whiteSpace=wrap;html=1;" parent="5vDNGPQUwyRePxuzF-Cj-53" vertex="1">
          <mxGeometry y="26" width="220" height="26" as="geometry" />
        </mxCell>
        <mxCell id="5vDNGPQUwyRePxuzF-Cj-55" value="+ OraVisita: type&lt;br&gt;&lt;br&gt;+Accettata:Bool&lt;br&gt;&lt;br&gt;+Descrizione:String" style="text;strokeColor=none;fillColor=none;align=left;verticalAlign=top;spacingLeft=4;spacingRight=4;overflow=hidden;rotatable=0;points=[[0,0.5],[1,0.5]];portConstraint=eastwest;whiteSpace=wrap;html=1;" parent="5vDNGPQUwyRePxuzF-Cj-53" vertex="1">
          <mxGeometry y="52" width="220" height="83" as="geometry" />
        </mxCell>
        <mxCell id="5vDNGPQUwyRePxuzF-Cj-56" value="" style="endArrow=none;html=1;rounded=0;exitX=1.017;exitY=0.277;exitDx=0;exitDy=0;exitPerimeter=0;entryX=-0.008;entryY=0.273;entryDx=0;entryDy=0;entryPerimeter=0;" parent="1" source="5vDNGPQUwyRePxuzF-Cj-4" target="5vDNGPQUwyRePxuzF-Cj-55" edge="1">
          <mxGeometry width="50" height="50" relative="1" as="geometry">
            <mxPoint x="90" y="310" as="sourcePoint" />
            <mxPoint x="140" y="260" as="targetPoint" />
          </mxGeometry>
        </mxCell>
        <mxCell id="5vDNGPQUwyRePxuzF-Cj-57" value="" style="endArrow=none;html=1;rounded=0;exitX=0.998;exitY=0.225;exitDx=0;exitDy=0;exitPerimeter=0;entryX=0;entryY=0.5;entryDx=0;entryDy=0;" parent="1" source="5vDNGPQUwyRePxuzF-Cj-55" target="5vDNGPQUwyRePxuzF-Cj-8" edge="1">
          <mxGeometry width="50" height="50" relative="1" as="geometry">
            <mxPoint x="500" y="590" as="sourcePoint" />
            <mxPoint x="550" y="540" as="targetPoint" />
          </mxGeometry>
        </mxCell>
        <mxCell id="5vDNGPQUwyRePxuzF-Cj-59" value="prenota&amp;gt;" style="text;html=1;align=center;verticalAlign=middle;resizable=0;points=[];autosize=1;strokeColor=none;fillColor=none;" parent="1" vertex="1">
          <mxGeometry x="10" y="292.5" width="70" height="30" as="geometry" />
        </mxCell>
        <mxCell id="5vDNGPQUwyRePxuzF-Cj-60" value="svolta da&amp;gt;" style="text;html=1;align=center;verticalAlign=middle;resizable=0;points=[];autosize=1;strokeColor=none;fillColor=none;" parent="1" vertex="1">
          <mxGeometry x="410" y="285" width="80" height="30" as="geometry" />
        </mxCell>
        <mxCell id="5vDNGPQUwyRePxuzF-Cj-61" value="" style="endArrow=none;html=1;rounded=0;exitX=0.5;exitY=0;exitDx=0;exitDy=0;" parent="1" source="5vDNGPQUwyRePxuzF-Cj-19" target="5vDNGPQUwyRePxuzF-Cj-8" edge="1">
          <mxGeometry width="50" height="50" relative="1" as="geometry">
            <mxPoint x="200" y="540" as="sourcePoint" />
            <mxPoint x="520" y="450" as="targetPoint" />
          </mxGeometry>
        </mxCell>
        <mxCell id="5vDNGPQUwyRePxuzF-Cj-64" value="" style="endArrow=none;html=1;rounded=0;entryX=0.986;entryY=1.01;entryDx=0;entryDy=0;entryPerimeter=0;" parent="1" source="5vDNGPQUwyRePxuzF-Cj-19" target="5vDNGPQUwyRePxuzF-Cj-4" edge="1">
          <mxGeometry width="50" height="50" relative="1" as="geometry">
            <mxPoint x="-420" y="720" as="sourcePoint" />
            <mxPoint x="-370" y="670" as="targetPoint" />
          </mxGeometry>
        </mxCell>
        <mxCell id="5vDNGPQUwyRePxuzF-Cj-65" value="" style="endArrow=none;html=1;rounded=0;exitX=1;exitY=0;exitDx=0;exitDy=0;entryX=0;entryY=0.5;entryDx=0;entryDy=0;" parent="1" source="5vDNGPQUwyRePxuzF-Cj-1" target="5vDNGPQUwyRePxuzF-Cj-43" edge="1">
          <mxGeometry width="50" height="50" relative="1" as="geometry">
            <mxPoint x="70" y="150" as="sourcePoint" />
            <mxPoint x="120" y="100" as="targetPoint" />
          </mxGeometry>
        </mxCell>
        <mxCell id="5vDNGPQUwyRePxuzF-Cj-66" value="lascia&amp;gt;" style="text;html=1;align=center;verticalAlign=middle;resizable=0;points=[];autosize=1;strokeColor=none;fillColor=none;rotation=-15;" parent="1" vertex="1">
          <mxGeometry y="130" width="60" height="30" as="geometry" />
        </mxCell>
        <mxCell id="5vDNGPQUwyRePxuzF-Cj-68" value="" style="endArrow=none;html=1;rounded=0;exitX=1;exitY=0.5;exitDx=0;exitDy=0;entryX=0.002;entryY=0.102;entryDx=0;entryDy=0;entryPerimeter=0;" parent="1" source="5vDNGPQUwyRePxuzF-Cj-43" target="5vDNGPQUwyRePxuzF-Cj-8" edge="1">
          <mxGeometry width="50" height="50" relative="1" as="geometry">
            <mxPoint x="590" y="90" as="sourcePoint" />
            <mxPoint x="640" y="40" as="targetPoint" />
          </mxGeometry>
        </mxCell>
        <mxCell id="5vDNGPQUwyRePxuzF-Cj-69" value="si riferisce&amp;gt;" style="text;html=1;align=center;verticalAlign=middle;resizable=0;points=[];autosize=1;strokeColor=none;fillColor=none;rotation=15;" parent="1" vertex="1">
          <mxGeometry x="400" y="138" width="80" height="30" as="geometry" />
        </mxCell>
        <mxCell id="5vDNGPQUwyRePxuzF-Cj-71" value="effettua&amp;gt;" style="text;html=1;align=center;verticalAlign=middle;resizable=0;points=[];autosize=1;strokeColor=none;fillColor=none;rotation=75;" parent="1" vertex="1">
          <mxGeometry x="-100" y="608" width="70" height="30" as="geometry" />
        </mxCell>
        <mxCell id="5vDNGPQUwyRePxuzF-Cj-72" value="&amp;lt;effettua" style="text;html=1;align=center;verticalAlign=middle;resizable=0;points=[];autosize=1;strokeColor=none;fillColor=none;rotation=-30;" parent="1" vertex="1">
          <mxGeometry x="205" y="550" width="70" height="30" as="geometry" />
        </mxCell>
        <mxCell id="5vDNGPQUwyRePxuzF-Cj-84" value="0..*" style="text;html=1;align=center;verticalAlign=middle;resizable=0;points=[];autosize=1;strokeColor=none;fillColor=none;" parent="1" vertex="1">
          <mxGeometry x="116" y="120" width="40" height="30" as="geometry" />
        </mxCell>
        <mxCell id="5vDNGPQUwyRePxuzF-Cj-85" value="1" style="text;html=1;align=center;verticalAlign=middle;resizable=0;points=[];autosize=1;strokeColor=none;fillColor=none;" parent="1" vertex="1">
          <mxGeometry x="-70" y="148" width="30" height="30" as="geometry" />
        </mxCell>
        <mxCell id="5vDNGPQUwyRePxuzF-Cj-86" value="1" style="text;html=1;align=center;verticalAlign=middle;resizable=0;points=[];autosize=1;strokeColor=none;fillColor=none;" parent="1" vertex="1">
          <mxGeometry x="495" y="178" width="30" height="30" as="geometry" />
        </mxCell>
        <mxCell id="5vDNGPQUwyRePxuzF-Cj-87" value="0..*" style="text;html=1;align=center;verticalAlign=middle;resizable=0;points=[];autosize=1;strokeColor=none;fillColor=none;" parent="1" vertex="1">
          <mxGeometry x="360" y="120" width="40" height="30" as="geometry" />
        </mxCell>
        <mxCell id="5vDNGPQUwyRePxuzF-Cj-88" value="(&amp;lt;Ã¨ riferito)" style="text;html=1;align=center;verticalAlign=middle;resizable=0;points=[];autosize=1;strokeColor=none;fillColor=none;" parent="1" vertex="1">
          <mxGeometry x="404" y="98" width="80" height="30" as="geometry" />
        </mxCell>
        <mxCell id="5vDNGPQUwyRePxuzF-Cj-91" value="1" style="text;html=1;align=center;verticalAlign=middle;resizable=0;points=[];autosize=1;strokeColor=none;fillColor=none;" parent="1" vertex="1">
          <mxGeometry x="950" y="608" width="30" height="30" as="geometry" />
        </mxCell>
        <mxCell id="5vDNGPQUwyRePxuzF-Cj-92" value="0..*" style="text;html=1;align=center;verticalAlign=middle;resizable=0;points=[];autosize=1;strokeColor=none;fillColor=none;" parent="1" vertex="1">
          <mxGeometry x="950" y="468" width="40" height="30" as="geometry" />
        </mxCell>
        <mxCell id="5vDNGPQUwyRePxuzF-Cj-93" value="0..*" style="text;html=1;align=center;verticalAlign=middle;resizable=0;points=[];autosize=1;strokeColor=none;fillColor=none;" parent="1" vertex="1">
          <mxGeometry x="-80" y="690" width="40" height="30" as="geometry" />
        </mxCell>
        <mxCell id="5vDNGPQUwyRePxuzF-Cj-94" value="1..*" style="text;html=1;align=center;verticalAlign=middle;resizable=0;points=[];autosize=1;strokeColor=none;fillColor=none;" parent="1" vertex="1">
          <mxGeometry x="-100" y="508" width="40" height="30" as="geometry" />
        </mxCell>
        <mxCell id="5vDNGPQUwyRePxuzF-Cj-95" value="1" style="text;html=1;align=center;verticalAlign=middle;resizable=0;points=[];autosize=1;strokeColor=none;fillColor=none;" parent="1" vertex="1">
          <mxGeometry x="-60" y="292.5" width="30" height="30" as="geometry" />
        </mxCell>
        <mxCell id="5vDNGPQUwyRePxuzF-Cj-96" value="0..*" style="text;html=1;align=center;verticalAlign=middle;resizable=0;points=[];autosize=1;strokeColor=none;fillColor=none;" parent="1" vertex="1">
          <mxGeometry x="110" y="292.5" width="40" height="30" as="geometry" />
        </mxCell>
        <mxCell id="5vDNGPQUwyRePxuzF-Cj-97" value="1" style="text;html=1;align=center;verticalAlign=middle;resizable=0;points=[];autosize=1;strokeColor=none;fillColor=none;" parent="1" vertex="1">
          <mxGeometry x="495" y="292.5" width="30" height="30" as="geometry" />
        </mxCell>
        <mxCell id="5vDNGPQUwyRePxuzF-Cj-98" value="0..*" style="text;html=1;align=center;verticalAlign=middle;resizable=0;points=[];autosize=1;strokeColor=none;fillColor=none;" parent="1" vertex="1">
          <mxGeometry x="364" y="292.5" width="40" height="30" as="geometry" />
        </mxCell>
        <mxCell id="5vDNGPQUwyRePxuzF-Cj-99" value="(&amp;lt;svolge)" style="text;html=1;align=center;verticalAlign=middle;resizable=0;points=[];autosize=1;strokeColor=none;fillColor=none;" parent="1" vertex="1">
          <mxGeometry x="415" y="262.5" width="70" height="30" as="geometry" />
        </mxCell>
        <mxCell id="5vDNGPQUwyRePxuzF-Cj-102" value="0..*" style="text;html=1;align=center;verticalAlign=middle;resizable=0;points=[];autosize=1;strokeColor=none;fillColor=none;" parent="1" vertex="1">
          <mxGeometry x="10" y="692" width="40" height="30" as="geometry" />
        </mxCell>
        <mxCell id="5vDNGPQUwyRePxuzF-Cj-103" value="1..*" style="text;html=1;align=center;verticalAlign=middle;resizable=0;points=[];autosize=1;strokeColor=none;fillColor=none;" parent="1" vertex="1">
          <mxGeometry x="490" y="388" width="40" height="30" as="geometry" />
        </mxCell>
        <mxCell id="5vDNGPQUwyRePxuzF-Cj-106" value="" style="endArrow=none;html=1;rounded=0;exitX=1;exitY=0;exitDx=0;exitDy=0;entryX=0;entryY=1;entryDx=0;entryDy=0;" parent="1" source="5vDNGPQUwyRePxuzF-Cj-53" target="5vDNGPQUwyRePxuzF-Cj-24" edge="1">
          <mxGeometry width="50" height="50" relative="1" as="geometry">
            <mxPoint x="380" y="-20" as="sourcePoint" />
            <mxPoint x="430" y="-70" as="targetPoint" />
          </mxGeometry>
        </mxCell>
        <mxCell id="5vDNGPQUwyRePxuzF-Cj-107" value="" style="endArrow=none;html=1;rounded=0;entryX=0.43;entryY=0.998;entryDx=0;entryDy=0;entryPerimeter=0;exitX=0.75;exitY=0;exitDx=0;exitDy=0;" parent="1" source="5vDNGPQUwyRePxuzF-Cj-22" target="5vDNGPQUwyRePxuzF-Cj-8" edge="1">
          <mxGeometry width="50" height="50" relative="1" as="geometry">
            <mxPoint x="500" y="710" as="sourcePoint" />
            <mxPoint x="550" y="660" as="targetPoint" />
          </mxGeometry>
        </mxCell>
        <mxCell id="5vDNGPQUwyRePxuzF-Cj-108" value="" style="endArrow=none;html=1;rounded=0;entryX=1.114;entryY=-0.01;entryDx=0;entryDy=0;entryPerimeter=0;exitX=0.429;exitY=-0.004;exitDx=0;exitDy=0;exitPerimeter=0;" parent="1" source="5vDNGPQUwyRePxuzF-Cj-22" target="5vDNGPQUwyRePxuzF-Cj-94" edge="1">
          <mxGeometry width="50" height="50" relative="1" as="geometry">
            <mxPoint x="-20" y="590" as="sourcePoint" />
            <mxPoint x="30" y="540" as="targetPoint" />
          </mxGeometry>
        </mxCell>
        <mxCell id="5vDNGPQUwyRePxuzF-Cj-109" value="" style="endArrow=none;html=1;rounded=0;entryX=0.014;entryY=1;entryDx=0;entryDy=0;entryPerimeter=0;exitX=1;exitY=0;exitDx=0;exitDy=0;" parent="1" source="5vDNGPQUwyRePxuzF-Cj-22" target="5vDNGPQUwyRePxuzF-Cj-15" edge="1">
          <mxGeometry width="50" height="50" relative="1" as="geometry">
            <mxPoint x="750" y="710" as="sourcePoint" />
            <mxPoint x="800" y="660" as="targetPoint" />
            <Array as="points">
              <mxPoint x="790" y="630" />
            </Array>
          </mxGeometry>
        </mxCell>
        <mxCell id="5vDNGPQUwyRePxuzF-Cj-110" value="riceve&amp;gt;" style="text;html=1;align=center;verticalAlign=middle;resizable=0;points=[];autosize=1;strokeColor=none;fillColor=none;rotation=15;" parent="1" vertex="1">
          <mxGeometry x="230" y="650" width="60" height="30" as="geometry" />
        </mxCell>
        <mxCell id="5vDNGPQUwyRePxuzF-Cj-111" value="&amp;lt;riceve" style="text;html=1;align=center;verticalAlign=middle;resizable=0;points=[];autosize=1;strokeColor=none;fillColor=none;rotation=-55;" parent="1" vertex="1">
          <mxGeometry x="760" y="638" width="60" height="30" as="geometry" />
        </mxCell>
        <mxCell id="5vDNGPQUwyRePxuzF-Cj-112" value="riceve&amp;gt;" style="text;html=1;align=center;verticalAlign=middle;resizable=0;points=[];autosize=1;strokeColor=none;fillColor=none;rotation=75;" parent="1" vertex="1">
          <mxGeometry x="600" y="578" width="60" height="30" as="geometry" />
        </mxCell>
        <mxCell id="5vDNGPQUwyRePxuzF-Cj-113" value="0..*" style="text;html=1;align=center;verticalAlign=middle;resizable=0;points=[];autosize=1;strokeColor=none;fillColor=none;" parent="1" vertex="1">
          <mxGeometry x="490" y="740" width="40" height="30" as="geometry" />
        </mxCell>
        <mxCell id="5vDNGPQUwyRePxuzF-Cj-114" value="0..1" style="text;html=1;align=center;verticalAlign=middle;resizable=0;points=[];autosize=1;strokeColor=none;fillColor=none;" parent="1" vertex="1">
          <mxGeometry x="-65" y="478" width="40" height="30" as="geometry" />
        </mxCell>
        <mxCell id="5vDNGPQUwyRePxuzF-Cj-115" value="" style="endArrow=none;html=1;rounded=0;exitX=0.971;exitY=-0.048;exitDx=0;exitDy=0;exitPerimeter=0;entryX=-0.004;entryY=0.103;entryDx=0;entryDy=0;entryPerimeter=0;" parent="1" source="5vDNGPQUwyRePxuzF-Cj-94" target="5vDNGPQUwyRePxuzF-Cj-22" edge="1">
          <mxGeometry width="50" height="50" relative="1" as="geometry">
            <mxPoint x="80" y="500" as="sourcePoint" />
            <mxPoint x="130" y="450" as="targetPoint" />
          </mxGeometry>
        </mxCell>
        <mxCell id="5vDNGPQUwyRePxuzF-Cj-116" value="lascia" style="text;html=1;align=center;verticalAlign=middle;resizable=0;points=[];autosize=1;strokeColor=none;fillColor=none;rotation=30;" parent="1" vertex="1">
          <mxGeometry x="250" y="720" width="50" height="30" as="geometry" />
        </mxCell>
        <mxCell id="5vDNGPQUwyRePxuzF-Cj-117" value="0..*" style="text;html=1;align=center;verticalAlign=middle;resizable=0;points=[];autosize=1;strokeColor=none;fillColor=none;" parent="1" vertex="1">
          <mxGeometry x="364" y="786" width="40" height="30" as="geometry" />
        </mxCell>
        <mxCell id="5vDNGPQUwyRePxuzF-Cj-118" value="0..1" style="text;html=1;align=center;verticalAlign=middle;resizable=0;points=[];autosize=1;strokeColor=none;fillColor=none;" parent="1" vertex="1">
          <mxGeometry x="-50" y="530" width="40" height="30" as="geometry" />
        </mxCell>
        <mxCell id="5vDNGPQUwyRePxuzF-Cj-119" value="" style="endArrow=none;html=1;rounded=0;entryX=0.337;entryY=1.009;entryDx=0;entryDy=0;entryPerimeter=0;exitX=0.643;exitY=0.027;exitDx=0;exitDy=0;exitPerimeter=0;" parent="1" source="5vDNGPQUwyRePxuzF-Cj-22" target="5vDNGPQUwyRePxuzF-Cj-8" edge="1">
          <mxGeometry width="50" height="50" relative="1" as="geometry">
            <mxPoint x="380" y="680" as="sourcePoint" />
            <mxPoint x="430" y="630" as="targetPoint" />
          </mxGeometry>
        </mxCell>
        <mxCell id="5vDNGPQUwyRePxuzF-Cj-120" value="0..*" style="text;html=1;align=center;verticalAlign=middle;resizable=0;points=[];autosize=1;strokeColor=none;fillColor=none;" parent="1" vertex="1">
          <mxGeometry x="630" y="750" width="40" height="30" as="geometry" />
        </mxCell>
        <mxCell id="5vDNGPQUwyRePxuzF-Cj-121" value="0..1" style="text;html=1;align=center;verticalAlign=middle;resizable=0;points=[];autosize=1;strokeColor=none;fillColor=none;" parent="1" vertex="1">
          <mxGeometry x="600" y="448" width="40" height="30" as="geometry" />
        </mxCell>
        <mxCell id="5vDNGPQUwyRePxuzF-Cj-122" value="lascia&amp;gt;" style="text;html=1;align=center;verticalAlign=middle;resizable=0;points=[];autosize=1;strokeColor=none;fillColor=none;rotation=90;" parent="1" vertex="1">
          <mxGeometry x="545" y="598" width="60" height="30" as="geometry" />
        </mxCell>
        <mxCell id="5vDNGPQUwyRePxuzF-Cj-123" value="0..*" style="text;html=1;align=center;verticalAlign=middle;resizable=0;points=[];autosize=1;strokeColor=none;fillColor=none;" parent="1" vertex="1">
          <mxGeometry x="560" y="750" width="40" height="30" as="geometry" />
        </mxCell>
        <mxCell id="5vDNGPQUwyRePxuzF-Cj-124" value="0..1" style="text;html=1;align=center;verticalAlign=middle;resizable=0;points=[];autosize=1;strokeColor=none;fillColor=none;" parent="1" vertex="1">
          <mxGeometry x="540" y="450" width="40" height="30" as="geometry" />
        </mxCell>
        <mxCell id="5vDNGPQUwyRePxuzF-Cj-125" value="0..*" style="text;html=1;align=center;verticalAlign=middle;resizable=0;points=[];autosize=1;strokeColor=none;fillColor=none;" parent="1" vertex="1">
          <mxGeometry x="710" y="786" width="40" height="30" as="geometry" />
        </mxCell>
        <mxCell id="5vDNGPQUwyRePxuzF-Cj-126" value="0..1" style="text;html=1;align=center;verticalAlign=middle;resizable=0;points=[];autosize=1;strokeColor=none;fillColor=none;" parent="1" vertex="1">
          <mxGeometry x="835" y="478" width="40" height="30" as="geometry" />
        </mxCell>
        <mxCell id="5vDNGPQUwyRePxuzF-Cj-127" value="" style="endArrow=none;html=1;rounded=0;exitX=1;exitY=0;exitDx=0;exitDy=0;entryX=-0.016;entryY=0.968;entryDx=0;entryDy=0;entryPerimeter=0;" parent="1" source="5vDNGPQUwyRePxuzF-Cj-22" target="5vDNGPQUwyRePxuzF-Cj-15" edge="1">
          <mxGeometry width="50" height="50" relative="1" as="geometry">
            <mxPoint x="920" y="860" as="sourcePoint" />
            <mxPoint x="970" y="810" as="targetPoint" />
          </mxGeometry>
        </mxCell>
        <mxCell id="5vDNGPQUwyRePxuzF-Cj-128" value="lascia&amp;gt;" style="text;html=1;align=center;verticalAlign=middle;resizable=0;points=[];autosize=1;strokeColor=none;fillColor=none;rotation=-240;" parent="1" vertex="1">
          <mxGeometry x="720" y="608" width="60" height="30" as="geometry" />
        </mxCell>
        <mxCell id="5vDNGPQUwyRePxuzF-Cj-129" value="0..*" style="text;html=1;align=center;verticalAlign=middle;resizable=0;points=[];autosize=1;strokeColor=none;fillColor=none;" parent="1" vertex="1">
          <mxGeometry x="680" y="740" width="40" height="30" as="geometry" />
        </mxCell>
        <mxCell id="5vDNGPQUwyRePxuzF-Cj-130" value="0..1" style="text;html=1;align=center;verticalAlign=middle;resizable=0;points=[];autosize=1;strokeColor=none;fillColor=none;" parent="1" vertex="1">
          <mxGeometry x="790" y="458" width="40" height="30" as="geometry" />
        </mxCell>
        <mxCell id="5vDNGPQUwyRePxuzF-Cj-131" value="carica&amp;gt;" style="text;html=1;align=center;verticalAlign=middle;resizable=0;points=[];autosize=1;strokeColor=none;fillColor=none;rotation=-30;" parent="1" vertex="1">
          <mxGeometry x="740" y="78" width="60" height="30" as="geometry" />
        </mxCell>
        <mxCell id="5vDNGPQUwyRePxuzF-Cj-132" value="0..*" style="text;html=1;align=center;verticalAlign=middle;resizable=0;points=[];autosize=1;strokeColor=none;fillColor=none;" parent="1" vertex="1">
          <mxGeometry x="800" y="38" width="40" height="30" as="geometry" />
        </mxCell>
        <mxCell id="5vDNGPQUwyRePxuzF-Cj-133" value="1" style="text;html=1;align=center;verticalAlign=middle;resizable=0;points=[];autosize=1;strokeColor=none;fillColor=none;" parent="1" vertex="1">
          <mxGeometry x="715" y="118" width="30" height="30" as="geometry" />
        </mxCell>
        <mxCell id="5vDNGPQUwyRePxuzF-Cj-134" value="si riferisce" style="text;html=1;align=center;verticalAlign=middle;resizable=0;points=[];autosize=1;strokeColor=none;fillColor=none;rotation=-45;" parent="1" vertex="1">
          <mxGeometry x="495" y="68" width="80" height="30" as="geometry" />
        </mxCell>
        <mxCell id="5vDNGPQUwyRePxuzF-Cj-135" value="1" style="text;html=1;align=center;verticalAlign=middle;resizable=0;points=[];autosize=1;strokeColor=none;fillColor=none;" parent="1" vertex="1">
          <mxGeometry x="590" y="18" width="30" height="30" as="geometry" />
        </mxCell>
        <mxCell id="5vDNGPQUwyRePxuzF-Cj-136" value="0..*" style="text;html=1;align=center;verticalAlign=middle;resizable=0;points=[];autosize=1;strokeColor=none;fillColor=none;" parent="1" vertex="1">
          <mxGeometry x="350" y="221" width="40" height="30" as="geometry" />
        </mxCell>
        <mxCell id="5vDNGPQUwyRePxuzF-Cj-137" value="0..*" style="text;html=1;align=center;verticalAlign=middle;resizable=0;points=[];autosize=1;strokeColor=none;fillColor=none;" parent="1" vertex="1">
          <mxGeometry x="700" y="258" width="40" height="30" as="geometry" />
        </mxCell>
        <mxCell id="5vDNGPQUwyRePxuzF-Cj-138" value="1" style="text;html=1;align=center;verticalAlign=middle;resizable=0;points=[];autosize=1;strokeColor=none;fillColor=none;" parent="1" vertex="1">
          <mxGeometry x="810" y="251" width="30" height="30" as="geometry" />
        </mxCell>
        <mxCell id="5vDNGPQUwyRePxuzF-Cj-141" value="crea&amp;gt;" style="text;html=1;align=center;verticalAlign=middle;resizable=0;points=[];autosize=1;strokeColor=none;fillColor=none;" parent="1" vertex="1">
          <mxGeometry x="1045" y="98" width="50" height="30" as="geometry" />
        </mxCell>
        <mxCell id="5vDNGPQUwyRePxuzF-Cj-142" value="0..*" style="text;html=1;align=center;verticalAlign=middle;resizable=0;points=[];autosize=1;strokeColor=none;fillColor=none;" parent="1" vertex="1">
          <mxGeometry x="1045" y="221" width="40" height="30" as="geometry" />
        </mxCell>
        <mxCell id="5vDNGPQUwyRePxuzF-Cj-143" value="1" style="text;html=1;align=center;verticalAlign=middle;resizable=0;points=[];autosize=1;strokeColor=none;fillColor=none;" parent="1" vertex="1">
          <mxGeometry x="910" y="108" width="30" height="30" as="geometry" />
        </mxCell>
      </root>
    </mxGraphModel>
  </diagram>
</mxfile>
